<?xml version="1.0" encoding="utf-8"?>
<!-- Generator: Adobe Illustrator 15.1.0, SVG Export Plug-In . SVG Version: 6.00 Build 0)  -->
<!DOCTYPE svg PUBLIC "-//W3C//DTD SVG 1.1//EN" "http://www.w3.org/Graphics/SVG/1.1/DTD/svg11.dtd">
<svg version="1.1" id="Layer_1" xmlns="http://www.w3.org/2000/svg" xmlns:xlink="http://www.w3.org/1999/xlink" x="0px" y="0px"
	 width="600px" height="200px" viewBox="0 0 600 200" enable-background="new 0 0 600 200" xml:space="preserve">
<g>
	<path fill="#0073BC" d="M127.88,37.308l-24.631,18.307V41.481H88.722v24.931L72.52,78.453v45.409c0,4.012,3.253,7.264,7.265,7.264
		s7.264-3.252,7.264-7.264V85.756l40.897-30.396l38.829,28.425v40.075c0,4.012,3.252,7.264,7.264,7.264s7.264-3.252,7.264-7.264
		V76.416L127.88,37.308z"/>
	<g>
		<path fill="#FFCA00" d="M174.038,162.691l-26.046-26.047c-2.838-2.838-2.837-7.436,0-10.273c2.836-2.836,7.435-2.836,10.272,0
			l15.773,15.775l15.774-15.775c2.836-2.836,7.436-2.836,10.272,0c2.837,2.838,2.837,7.436,0.001,10.273L174.038,162.691z"/>
	</g>
	<g>
		<path fill="#0073BC" d="M225.191,110.504l-2.964-6.887h-14.514l-2.963,6.887h-6.843l14.252-31.032h5.491l14.252,31.032H225.191z
			 M209.98,98.431h10.024l-5.013-11.637L209.98,98.431z"/>
		<path fill="#0073BC" d="M234.561,79.472h14.078c3.428,0,6.094,0.828,7.997,2.484c1.902,1.656,2.854,3.908,2.854,6.756
			c0,2.818-0.959,5.063-2.876,6.732c-1.918,1.672-4.577,2.507-7.976,2.507h-7.278v12.552h-6.8V79.472z M247.767,92.765
			c3.545,0,5.317-1.336,5.317-4.01c0-2.702-1.772-4.053-5.317-4.053h-6.406v8.063H247.767z"/>
		<path fill="#0073BC" d="M263.979,79.472h14.078c3.428,0,6.094,0.828,7.997,2.484s2.854,3.908,2.854,6.756
			c0,2.818-0.959,5.063-2.876,6.732c-1.918,1.672-4.576,2.507-7.976,2.507h-7.278v12.552h-6.8V79.472z M277.185,92.765
			c3.545,0,5.317-1.336,5.317-4.01c0-2.702-1.772-4.053-5.317-4.053h-6.406v8.063H277.185z"/>
		<path fill="#0073BC" d="M319.59,110.504h-7.19l-3.967-10.33c-0.319-0.813-0.806-1.38-1.459-1.699
			c-0.654-0.32-1.476-0.479-2.463-0.479h-4.402v12.508h-6.712V79.472h13.816c3.603,0,6.334,0.785,8.193,2.354
			s2.789,3.821,2.789,6.756c0,2.063-0.545,3.835-1.634,5.316c-1.09,1.482-2.652,2.543-4.686,3.182
			c1.831,0.378,3.152,1.643,3.967,3.792L319.59,110.504z M306.21,92.808c1.947,0,3.37-0.326,4.271-0.98
			c0.9-0.653,1.352-1.677,1.352-3.072c0-1.395-0.451-2.418-1.352-3.072c-0.901-0.654-2.324-0.98-4.271-0.98h-6.188v8.105H306.21z"/>
		<path fill="#0073BC" d="M347.527,110.504l-2.964-6.887H330.05l-2.964,6.887h-6.842l14.252-31.032h5.491l14.252,31.032H347.527z
			 M332.316,98.431h10.024l-5.013-11.637L332.316,98.431z"/>
		<path fill="#0073BC" d="M356.896,110.504V79.472h6.799v31.032H356.896z"/>
		<path fill="#0073BC" d="M374.003,109.959c-2.165-0.625-3.959-1.504-5.383-2.637l2.18-4.881c2.992,2.092,6.334,3.137,10.023,3.137
			c1.976,0,3.494-0.311,4.555-0.938c1.061-0.623,1.592-1.502,1.592-2.637c0-0.986-0.487-1.764-1.461-2.331
			c-0.974-0.567-2.681-1.112-5.121-1.635c-2.73-0.551-4.902-1.228-6.516-2.026c-1.611-0.799-2.789-1.772-3.53-2.92
			c-0.74-1.147-1.111-2.578-1.111-4.293c0-1.859,0.516-3.53,1.547-5.013c1.032-1.481,2.478-2.637,4.337-3.464
			c1.859-0.829,4.01-1.242,6.45-1.242c2.208,0,4.33,0.319,6.363,0.958c2.034,0.64,3.661,1.512,4.881,2.615l-2.179,4.881
			c-2.731-2.092-5.738-3.138-9.021-3.138c-1.744,0-3.139,0.349-4.184,1.046c-1.046,0.697-1.569,1.643-1.569,2.834
			c0,0.697,0.195,1.277,0.589,1.742c0.392,0.466,1.053,0.88,1.982,1.242c0.93,0.364,2.252,0.72,3.966,1.068
			c3.981,0.871,6.85,2.005,8.607,3.399s2.638,3.298,2.638,5.708c0,2.906-1.134,5.209-3.399,6.908
			c-2.267,1.701-5.42,2.551-9.458,2.551C378.427,110.896,376.167,110.584,374.003,109.959z"/>
		<path fill="#0073BC" d="M398.562,110.504V79.472h21.4v5.273h-14.775v7.322h13.859v5.317h-13.859v7.845h14.775v5.273H398.562z"/>
		<path fill="#FFCA00" d="M424.668,110.504V79.472h6.8v25.497h13.859v5.535H424.668z"/>
		<path fill="#FFCA00" d="M449.467,110.504V79.472h21.398v5.273h-14.774v7.322h13.859v5.317h-13.859v7.845h14.774v5.273H449.467z"/>
		<path fill="#FFCA00" d="M479.212,109.959c-2.165-0.625-3.959-1.504-5.383-2.637l2.18-4.881c2.992,2.092,6.334,3.137,10.024,3.137
			c1.975,0,3.493-0.311,4.554-0.938c1.061-0.623,1.592-1.502,1.592-2.637c0-0.986-0.487-1.764-1.461-2.331
			c-0.973-0.567-2.68-1.112-5.12-1.635c-2.731-0.551-4.903-1.228-6.517-2.026c-1.612-0.799-2.789-1.772-3.529-2.92
			c-0.741-1.147-1.112-2.578-1.112-4.293c0-1.859,0.517-3.53,1.548-5.013c1.031-1.481,2.477-2.637,4.336-3.464
			c1.859-0.829,4.011-1.242,6.45-1.242c2.208,0,4.329,0.319,6.363,0.958c2.034,0.64,3.662,1.512,4.882,2.615l-2.179,4.881
			c-2.732-2.092-5.739-3.138-9.022-3.138c-1.743,0-3.138,0.349-4.184,1.046s-1.569,1.643-1.569,2.834
			c0,0.697,0.196,1.277,0.589,1.742c0.392,0.466,1.053,0.88,1.982,1.242c0.93,0.364,2.251,0.72,3.967,1.068
			c3.98,0.871,6.85,2.005,8.607,3.399s2.637,3.298,2.637,5.708c0,2.906-1.133,5.209-3.399,6.908
			c-2.267,1.701-5.42,2.551-9.458,2.551C483.636,110.896,481.377,110.584,479.212,109.959z"/>
		<path fill="#FFCA00" d="M507.846,109.959c-2.165-0.625-3.959-1.504-5.382-2.637l2.179-4.881c2.993,2.092,6.335,3.137,10.024,3.137
			c1.976,0,3.493-0.311,4.555-0.938c1.061-0.623,1.591-1.502,1.591-2.637c0-0.986-0.487-1.764-1.461-2.331
			c-0.973-0.567-2.68-1.112-5.12-1.635c-2.731-0.551-4.902-1.228-6.516-2.026c-1.612-0.799-2.789-1.772-3.53-2.92
			s-1.112-2.578-1.112-4.293c0-1.859,0.517-3.53,1.548-5.013c1.031-1.481,2.478-2.637,4.337-3.464
			c1.859-0.829,4.01-1.242,6.45-1.242c2.207,0,4.329,0.319,6.362,0.958c2.034,0.64,3.662,1.512,4.882,2.615l-2.179,4.881
			c-2.731-2.092-5.739-3.138-9.021-3.138c-1.744,0-3.139,0.349-4.184,1.046c-1.047,0.697-1.569,1.643-1.569,2.834
			c0,0.697,0.195,1.277,0.588,1.742c0.393,0.466,1.053,0.88,1.982,1.242c0.93,0.364,2.252,0.72,3.967,1.068
			c3.98,0.871,6.85,2.005,8.607,3.399s2.637,3.298,2.637,5.708c0,2.906-1.133,5.209-3.399,6.908
			c-2.267,1.701-5.419,2.551-9.458,2.551C512.27,110.896,510.011,110.584,507.846,109.959z"/>
	</g>
</g>
</svg>
