<?xml version="1.0" encoding="utf-8"?>
<!-- Generator: Adobe Illustrator 15.1.0, SVG Export Plug-In . SVG Version: 6.00 Build 0)  -->
<!DOCTYPE svg PUBLIC "-//W3C//DTD SVG 1.1//EN" "http://www.w3.org/Graphics/SVG/1.1/DTD/svg11.dtd">
<svg version="1.1" id="Layer_1" xmlns="http://www.w3.org/2000/svg" xmlns:xlink="http://www.w3.org/1999/xlink" x="0px" y="0px"
	 width="100px" height="100px" viewBox="0 0 100 100" enable-background="new 0 0 100 100" xml:space="preserve">
<g>
	<path d="M45.338,50c0-5.523,4.478-10,10-10h32.783c5.523,0,10,4.477,10,10c0,5.522-4.477,10-10,10H55.338
		C49.815,60,45.338,55.522,45.338,50z"/>
</g>
<g>
	<path d="M1.878,50l35.859-35.858c3.905-3.905,10.237-3.905,14.142,0s3.904,10.236,0,14.143L30.163,50l21.716,21.716
		c3.904,3.905,3.904,10.236,0,14.142s-10.236,3.906-14.142,0.001L1.878,50z"/>
</g>
</svg>
