<?xml version="1.0" encoding="utf-8"?>
<!-- Generator: Adobe Illustrator 15.1.0, SVG Export Plug-In . SVG Version: 6.00 Build 0)  -->
<!DOCTYPE svg PUBLIC "-//W3C//DTD SVG 1.1//EN" "http://www.w3.org/Graphics/SVG/1.1/DTD/svg11.dtd">
<svg version="1.1" id="Layer_1" xmlns="http://www.w3.org/2000/svg" xmlns:xlink="http://www.w3.org/1999/xlink" x="0px" y="0px"
	 width="200px" height="200px" viewBox="0 0 200 200" enable-background="new 0 0 200 200" xml:space="preserve">
<path fill="#FFFFFF" d="M87.295,16.039L54.309,40.556V21.627H34.852v33.389L13.153,71.142v60.813c0,5.373,4.356,9.729,9.729,9.729
	c5.373,0,9.728-4.355,9.728-9.729V80.924l54.772-40.709l52.002,38.068v53.67c0,5.373,4.354,9.729,9.728,9.729
	s9.729-4.356,9.729-9.729V68.414L87.295,16.039z"/>
<g>
	<path fill="#FFFFFF" d="M149.113,183.961l-34.882-34.886c-3.801-3.799-3.8-9.958,0-13.757c3.798-3.8,9.956-3.799,13.757,0
		l21.125,21.125l21.126-21.125c3.799-3.8,9.958-3.8,13.758,0c3.799,3.799,3.799,9.958,0.001,13.757L149.113,183.961z"/>
</g>
</svg>
